<mxfile host="app.diagrams.net" modified="2022-02-03T14:45:37.983Z" agent="5.0 (Windows NT 10.0; Win64; x64) AppleWebKit/537.36 (KHTML, like Gecko) Chrome/97.0.4692.99 Safari/537.36 Edg/97.0.1072.76" etag="dYffD1K3svEPqmsGhTrn" version="16.5.3" type="github">
  <diagram id="8P86ZHIE9fSIN8G4dGRp" name="Page-1">
    <mxGraphModel dx="868" dy="1661" grid="1" gridSize="10" guides="1" tooltips="1" connect="1" arrows="1" fold="1" page="1" pageScale="1" pageWidth="827" pageHeight="1169" math="0" shadow="0">
      <root>
        <mxCell id="0" />
        <mxCell id="1" parent="0" />
        <mxCell id="qAD-AvLx9G8YYAJ1NmIg-1" value="Objetivo: Chupar uma bala&lt;br&gt;Teste 1: Chupar uma bata tic tac" style="strokeWidth=2;html=1;shape=mxgraph.flowchart.annotation_2;align=left;labelPosition=right;pointerEvents=1;" parent="1" vertex="1">
          <mxGeometry x="130" width="50" height="100" as="geometry" />
        </mxCell>
        <mxCell id="qAD-AvLx9G8YYAJ1NmIg-8" value="" style="edgeStyle=orthogonalEdgeStyle;rounded=0;orthogonalLoop=1;jettySize=auto;html=1;" parent="1" source="qAD-AvLx9G8YYAJ1NmIg-2" target="qAD-AvLx9G8YYAJ1NmIg-4" edge="1">
          <mxGeometry relative="1" as="geometry" />
        </mxCell>
        <mxCell id="qAD-AvLx9G8YYAJ1NmIg-2" value="Inicio" style="strokeWidth=2;html=1;shape=mxgraph.flowchart.terminator;whiteSpace=wrap;fillColor=#dae8fc;strokeColor=#6c8ebf;" parent="1" vertex="1">
          <mxGeometry x="314" y="120" width="106" height="50" as="geometry" />
        </mxCell>
        <mxCell id="qAD-AvLx9G8YYAJ1NmIg-3" value="Fim" style="strokeWidth=2;html=1;shape=mxgraph.flowchart.terminator;whiteSpace=wrap;fillColor=#dae8fc;strokeColor=#6c8ebf;" parent="1" vertex="1">
          <mxGeometry x="314" y="540" width="106" height="50" as="geometry" />
        </mxCell>
        <mxCell id="qAD-AvLx9G8YYAJ1NmIg-9" value="" style="edgeStyle=orthogonalEdgeStyle;rounded=0;orthogonalLoop=1;jettySize=auto;html=1;" parent="1" source="qAD-AvLx9G8YYAJ1NmIg-4" target="qAD-AvLx9G8YYAJ1NmIg-5" edge="1">
          <mxGeometry relative="1" as="geometry" />
        </mxCell>
        <mxCell id="qAD-AvLx9G8YYAJ1NmIg-4" value="Pegar a bala" style="rounded=1;whiteSpace=wrap;html=1;absoluteArcSize=1;arcSize=14;strokeWidth=2;fillColor=#d5e8d4;strokeColor=#82b366;" parent="1" vertex="1">
          <mxGeometry x="317.5" y="220" width="99" height="40" as="geometry" />
        </mxCell>
        <mxCell id="qAD-AvLx9G8YYAJ1NmIg-10" value="" style="edgeStyle=orthogonalEdgeStyle;rounded=0;orthogonalLoop=1;jettySize=auto;html=1;" parent="1" source="qAD-AvLx9G8YYAJ1NmIg-5" target="qAD-AvLx9G8YYAJ1NmIg-6" edge="1">
          <mxGeometry relative="1" as="geometry" />
        </mxCell>
        <mxCell id="qAD-AvLx9G8YYAJ1NmIg-5" value="Tirar embalagem da bala" style="rounded=1;whiteSpace=wrap;html=1;absoluteArcSize=1;arcSize=14;strokeWidth=2;fillColor=#d5e8d4;strokeColor=#82b366;" parent="1" vertex="1">
          <mxGeometry x="317.5" y="300" width="99" height="40" as="geometry" />
        </mxCell>
        <mxCell id="qAD-AvLx9G8YYAJ1NmIg-11" value="" style="edgeStyle=orthogonalEdgeStyle;rounded=0;orthogonalLoop=1;jettySize=auto;html=1;" parent="1" source="qAD-AvLx9G8YYAJ1NmIg-6" target="qAD-AvLx9G8YYAJ1NmIg-7" edge="1">
          <mxGeometry relative="1" as="geometry" />
        </mxCell>
        <mxCell id="qAD-AvLx9G8YYAJ1NmIg-6" value="Colocar bala na boca" style="rounded=1;whiteSpace=wrap;html=1;absoluteArcSize=1;arcSize=14;strokeWidth=2;fillColor=#d5e8d4;strokeColor=#82b366;" parent="1" vertex="1">
          <mxGeometry x="317.5" y="380" width="99" height="40" as="geometry" />
        </mxCell>
        <mxCell id="qAD-AvLx9G8YYAJ1NmIg-12" value="" style="edgeStyle=orthogonalEdgeStyle;rounded=0;orthogonalLoop=1;jettySize=auto;html=1;" parent="1" source="qAD-AvLx9G8YYAJ1NmIg-7" target="qAD-AvLx9G8YYAJ1NmIg-3" edge="1">
          <mxGeometry relative="1" as="geometry" />
        </mxCell>
        <mxCell id="qAD-AvLx9G8YYAJ1NmIg-7" value="Jogar embalagem no lixo" style="rounded=1;whiteSpace=wrap;html=1;absoluteArcSize=1;arcSize=14;strokeWidth=2;fillColor=#d5e8d4;strokeColor=#82b366;" parent="1" vertex="1">
          <mxGeometry x="317.5" y="460" width="99" height="40" as="geometry" />
        </mxCell>
      </root>
    </mxGraphModel>
  </diagram>
</mxfile>
